<svg xmlns="http://www.w3.org/2000/svg" version="1.1" xmlns:xlink="http://www.w3.org/1999/xlink" xmlns:svgjs="http://svgjs.dev/svgjs" width="1000" height="292" viewBox="0 0 1000 292"><g transform="matrix(1,0,0,1,-0.606050787543154,-0.24322473923695043)"><svg viewBox="0 0 396 116" data-background-color="#4d7e3e" preserveAspectRatio="xMidYMid meet" height="292" width="1000" xmlns="http://www.w3.org/2000/svg" xmlns:xlink="http://www.w3.org/1999/xlink"><defs></defs><g id="tight-bounds" transform="matrix(1,0,0,1,0.23999979130860538,0.09662352654618189)"><svg viewBox="0 0 395.52 115.80675294690761" height="115.80675294690761" width="395.52"><g><svg viewBox="0 0 789.6358249406662 231.20236877258122" height="115.80675294690761" width="395.52"><g transform="matrix(1,0,0,1,394.1158249406663,24.599725944588698)"><svg viewBox="0 0 395.52 182.00291688340383" height="182.00291688340383" width="395.52"><g><svg viewBox="0 0 395.52 182.00291688340383" height="182.00291688340383" width="395.52"><g><svg viewBox="0 0 395.52 116.35568605307733" height="116.35568605307733" width="395.52"><g transform="matrix(1,0,0,1,0,0)"><svg width="395.52" viewBox="3.75 -38.5 177.08999633789062 52.099998474121094" height="116.35568605307733" data-palette-color="#ffffff"><g class="undefined-text-0" data-fill-palette-color="primary" id="text-0"><path d="M3.75-34.75L24.2-34.75 24.2-30.1 9.45-30.1 9.45-19.85 20.95-19.85 20.95-15.2 9.45-15.2 9.45 0 3.75 0 3.75-34.75ZM41.45 0.45Q37.55 0.45 34.4-1.33 31.25-3.1 29.45-6.33 27.65-9.55 27.65-13.8L27.65-13.8Q27.65-18 29.5-21.25 31.35-24.5 34.55-26.25 37.75-28 41.7-28L41.7-28Q45.65-28 48.85-26.25 52.05-24.5 53.9-21.25 55.75-18 55.75-13.8L55.75-13.8Q55.75-9.6 53.85-6.35 51.95-3.1 48.67-1.33 45.4 0.45 41.45 0.45L41.45 0.45ZM41.45-4.5Q43.65-4.5 45.57-5.55 47.5-6.6 48.7-8.7 49.9-10.8 49.9-13.8L49.9-13.8Q49.9-16.8 48.75-18.88 47.6-20.95 45.7-22 43.8-23.05 41.6-23.05L41.6-23.05Q39.4-23.05 37.52-22 35.65-20.95 34.55-18.88 33.45-16.8 33.45-13.8L33.45-13.8Q33.45-9.35 35.72-6.93 38-4.5 41.45-4.5L41.45-4.5ZM61.4-37L67.09-37 67.09 0 61.4 0 61.4-37ZM77.49-31.2Q75.94-31.2 74.89-32.25 73.84-33.3 73.84-34.85L73.84-34.85Q73.84-36.4 74.89-37.45 75.94-38.5 77.49-38.5L77.49-38.5Q78.99-38.5 80.04-37.45 81.09-36.4 81.09-34.85L81.09-34.85Q81.09-33.3 80.04-32.25 78.99-31.2 77.49-31.2L77.49-31.2ZM74.59-27.55L80.29-27.55 80.29 0 74.59 0 74.59-27.55ZM85.89-13.9Q85.89-18.05 87.62-21.25 89.34-24.45 92.32-26.23 95.29-28 98.89-28L98.89-28Q102.14-28 104.57-26.73 106.99-25.45 108.44-23.55L108.44-23.55 108.44-27.55 114.19-27.55 114.19 0 108.44 0 108.44-4.1Q106.99-2.15 104.49-0.85 101.99 0.45 98.79 0.45L98.79 0.45Q95.24 0.45 92.29-1.38 89.34-3.2 87.62-6.48 85.89-9.75 85.89-13.9L85.89-13.9ZM108.44-13.8Q108.44-16.65 107.27-18.75 106.09-20.85 104.19-21.95 102.29-23.05 100.09-23.05L100.09-23.05Q97.89-23.05 95.99-21.98 94.09-20.9 92.92-18.82 91.74-16.75 91.74-13.9L91.74-13.9Q91.74-11.05 92.92-8.9 94.09-6.75 96.02-5.63 97.94-4.5 100.09-4.5L100.09-4.5Q102.29-4.5 104.19-5.6 106.09-6.7 107.27-8.83 108.44-10.95 108.44-13.8L108.44-13.8ZM132.79-28Q135.99-28 138.46-26.73 140.94-25.45 142.34-23.55L142.34-23.55 142.34-27.55 148.09-27.55 148.09 0.45Q148.09 4.25 146.49 7.23 144.89 10.2 141.86 11.9 138.84 13.6 134.64 13.6L134.64 13.6Q129.04 13.6 125.34 10.98 121.64 8.35 121.14 3.85L121.14 3.85 126.79 3.85Q127.44 6 129.56 7.33 131.69 8.65 134.64 8.65L134.64 8.65Q138.09 8.65 140.21 6.55 142.34 4.45 142.34 0.45L142.34 0.45 142.34-4.15Q140.89-2.2 138.41-0.88 135.94 0.45 132.79 0.45L132.79 0.45Q129.19 0.45 126.21-1.38 123.24-3.2 121.51-6.48 119.79-9.75 119.79-13.9L119.79-13.9Q119.79-18.05 121.51-21.25 123.24-24.45 126.21-26.23 129.19-28 132.79-28L132.79-28ZM142.34-13.8Q142.34-16.65 141.16-18.75 139.99-20.85 138.09-21.95 136.19-23.05 133.99-23.05L133.99-23.05Q131.79-23.05 129.89-21.98 127.99-20.9 126.81-18.82 125.64-16.75 125.64-13.9L125.64-13.9Q125.64-11.05 126.81-8.9 127.99-6.75 129.91-5.63 131.84-4.5 133.99-4.5L133.99-4.5Q136.19-4.5 138.09-5.6 139.99-6.7 141.16-8.83 142.34-10.95 142.34-13.8L142.34-13.8ZM180.84-14.45Q180.84-12.9 180.64-11.65L180.64-11.65 159.59-11.65Q159.84-8.35 162.03-6.35 164.24-4.35 167.44-4.35L167.44-4.35Q172.04-4.35 173.94-8.2L173.94-8.2 180.09-8.2Q178.84-4.4 175.56-1.98 172.29 0.45 167.44 0.45L167.44 0.45Q163.49 0.45 160.36-1.33 157.24-3.1 155.46-6.33 153.69-9.55 153.69-13.8L153.69-13.8Q153.69-18.05 155.41-21.28 157.14-24.5 160.26-26.25 163.39-28 167.44-28L167.44-28Q171.34-28 174.39-26.3 177.44-24.6 179.14-21.53 180.84-18.45 180.84-14.45L180.84-14.45ZM159.64-16.25L174.89-16.25Q174.84-19.4 172.64-21.3 170.44-23.2 167.19-23.2L167.19-23.2Q164.24-23.2 162.14-21.33 160.03-19.45 159.64-16.25L159.64-16.25Z" fill="#ffffff" data-fill-palette-color="primary"></path></g></svg></g></svg></g><g transform="matrix(1,0,0,1,0,143.82447099374363)"><svg viewBox="0 0 232.209792 38.1784458896602" height="38.1784458896602" width="232.209792"><g transform="matrix(1,0,0,1,0,0)"><svg width="232.209792" viewBox="0.75 -35 273.67999267578125 45" height="38.1784458896602" data-palette-color="#ffffff"><path d="M0.75-35L25.75-35 25.75-33.5 14-33.5 14 0 12.5 0 12.5-33.5 0.75-33.5 0.75-35ZM49.55-3.95L50.65-2.95Q47.9 0.5 41.65 0.5 35.4 0.5 32.7-3.05 30-6.6 30-14.5 30-22.4 32.7-25.95 35.4-29.5 41.65-29.5L41.65-29.5Q48.9-29.5 51.5-24.75L51.5-24.75 39.25-14.5 36.9-14.5 49.55-25.05Q47.35-28 41.65-28L41.65-28Q39.15-28 37.45-27.48 35.75-26.95 34.32-25.53 32.9-24.1 32.2-21.38 31.5-18.65 31.5-14.5 31.5-10.35 32.2-7.63 32.9-4.9 34.32-3.48 35.75-2.05 37.45-1.53 39.15-1 41.65-1L41.65-1Q47.35-1 49.55-3.95L49.55-3.95ZM60.1-3.05Q57.4-6.6 57.4-14.5 57.4-22.4 60.1-25.95 62.8-29.5 69.05-29.5 75.3-29.5 78.05-26.05L78.05-26.05 76.95-25.05Q74.75-28 69.05-28L69.05-28Q66.55-28 64.84-27.48 63.15-26.95 61.72-25.53 60.3-24.1 59.6-21.38 58.9-18.65 58.9-14.5 58.9-10.35 59.6-7.63 60.3-4.9 61.72-3.48 63.15-2.05 64.84-1.53 66.55-1 69.05-1L69.05-1Q74.75-1 76.95-3.95L76.95-3.95 78.05-2.95Q75.3 0.5 69.05 0.5 62.8 0.5 60.1-3.05ZM103.49-29L103.49 0 101.99 0 101.99-14.5 86.99-14.5 86.99 0 85.49 0 85.49-29 86.99-29 86.99-16 101.99-16 101.99-29 103.49-29ZM114.49 0L112.99 0 112.99-29 114.49-29 130.79-2.75 130.79-29 132.29-29 132.29 0 130.79 0 114.49-26.3 114.49 0ZM156.39-27.48Q154.69-28 152.19-28 149.69-28 147.99-27.48 146.29-26.95 144.86-25.53 143.44-24.1 142.74-21.38 142.04-18.65 142.04-14.5 142.04-10.35 142.74-7.63 143.44-4.9 144.86-3.48 146.29-2.05 147.99-1.53 149.69-1 152.19-1 154.69-1 156.39-1.53 158.09-2.05 159.51-3.48 160.94-4.9 161.64-7.63 162.34-10.35 162.34-14.5 162.34-18.65 161.64-21.38 160.94-24.1 159.51-25.53 158.09-26.95 156.39-27.48ZM161.14-3.05Q158.44 0.5 152.19 0.5 145.94 0.5 143.24-3.05 140.54-6.6 140.54-14.5 140.54-22.4 143.24-25.95 145.94-29.5 152.19-29.5 158.44-29.5 161.14-25.95 163.84-22.4 163.84-14.5 163.84-6.6 161.14-3.05ZM173.59-1.5L188.79-1.5 188.79 0 172.09 0 172.09-29 173.59-29 173.59-1.5ZM209.13-27.48Q207.43-28 204.93-28 202.43-28 200.73-27.48 199.03-26.95 197.61-25.53 196.18-24.1 195.48-21.38 194.78-18.65 194.78-14.5 194.78-10.35 195.48-7.63 196.18-4.9 197.61-3.48 199.03-2.05 200.73-1.53 202.43-1 204.93-1 207.43-1 209.13-1.53 210.83-2.05 212.26-3.48 213.68-4.9 214.38-7.63 215.08-10.35 215.08-14.5 215.08-18.65 214.38-21.38 213.68-24.1 212.26-25.53 210.83-26.95 209.13-27.48ZM213.88-3.05Q211.18 0.5 204.93 0.5 198.68 0.5 195.98-3.05 193.28-6.6 193.28-14.5 193.28-22.4 195.98-25.95 198.68-29.5 204.93-29.5 211.18-29.5 213.88-25.95 216.58-22.4 216.58-14.5 216.58-6.6 213.88-3.05ZM238.83-19.5L236.48-19.5 243.13-25.05Q240.93-28 235.23-28L235.23-28Q232.73-28 231.03-27.48 229.33-26.95 227.91-25.53 226.48-24.1 225.78-21.38 225.08-18.65 225.08-14.5 225.08-10.35 225.78-7.63 226.48-4.9 227.91-3.48 229.33-2.05 231.03-1.53 232.73-1 235.23-1L235.23-1Q240.88-1 243.08-3.9L243.08-3.9 243.08-12.75 244.58-12.75 244.58 0.45Q244.58 10 235.83 10L235.83 10 229.98 10 229.98 8.5 235.83 8.5Q239.58 8.5 241.33 6.53 243.08 4.55 243.08-1L243.08-1 243.08-1.75Q240.38 0.5 235.23 0.5L235.23 0.5Q228.98 0.5 226.28-3.05 223.58-6.6 223.58-14.5 223.58-22.4 226.28-25.95 228.98-29.5 235.23-29.5L235.23-29.5Q242.48-29.5 245.08-24.75L245.08-24.75 238.83-19.5ZM255.08-27.5L255.08-29 274.43-29 262.68-1.25 262.68 10 261.18 10 261.18-1.25 249.43-29 251.03-29 261.93-3.35 272.18-27.5 255.08-27.5Z" opacity="1" transform="matrix(1,0,0,1,0,0)" fill="#ffffff" class="undefined-text-1" data-fill-palette-color="secondary" id="text-1"></path></svg></g></svg></g></svg></g></svg></g><g><svg viewBox="0 0 366.64704 231.20236877258122" height="231.20236877258122" width="366.64704"><g><svg xmlns="http://www.w3.org/2000/svg" xmlns:xlink="http://www.w3.org/1999/xlink" xmlns:a="http://ns.adobe.com/AdobeSVGViewerExtensions/3.0/" version="1.1" x="0" y="0" viewBox="-0.000003337860107421875 -7.450580596923828e-9 68.0526123046875 42.913002014160156" enable-background="new -15.975 -32.22 100 100" xml:space="preserve" height="231.20236877258122" width="366.64704" class="icon-icon-0" data-fill-palette-color="accent" id="icon-0"><path d="M66.84 0.111C66.635 0.035 66.422 0 66.212 0c-0.613 0-1.208 0.308-1.557 0.844-0.059 0.09-1.478 2.219-4.996 3.213-1.263 0.355-3.122 0.529-5.276 0.729C49.826 5.207 43.586 5.787 37.83 8.743c-8.666 4.452-9.578 12.519-8.85 16.159 0.347 1.732 1.43 2.866 2.568 3.567-3.702 5.937-1.75 14.444-1.75 14.444s-0.128-6.14 3.236-11.926c0.059 0.092 0.106 0.184 0.174 0.275 1.195 1.631 3.295 2.547 6.241 2.723 0.036 0.002 0.073 0.003 0.109 0.003 0.056 0 0.108-0.002 0.163-0.007C63.96 31.822 68 2.362 68.038 2.064 68.146 1.213 67.646 0.406 66.84 0.111zM39.56 32.146c-3.743-0.223-4.975-1.717-5.35-2.944 0.215-0.294 0.429-0.589 0.665-0.876 5.257-6.381 15.664-12.762 15.664-12.762s-12.85 5.604-17.886 11.419c-0.774-0.436-1.615-1.186-1.867-2.441-0.499-2.5-0.222-9.995 7.886-14.161 8.105-4.164 17.156-3.329 21.486-4.552 4.332-1.222 6.053-3.999 6.053-3.999S62.602 30.095 39.56 32.146z" fill="#ffffff" data-fill-palette-color="accent"></path><path d="M27.773 30.186c0.525-2.631-0.122-8.449-6.334-11.643-4.023-2.064-8.34-2.467-11.492-2.758-1.436-0.135-2.677-0.25-3.484-0.477-2.157-0.608-3.036-1.892-3.057-1.921-0.343-0.553-0.941-0.87-1.564-0.87-0.207 0-0.414 0.033-0.617 0.105-0.816 0.29-1.32 1.11-1.21 1.969C0.041 14.8 2.857 35.325 19.828 36.84c0.055 0.005 0.108 0.007 0.163 0.007 0.037 0 0.073-0.001 0.11-0.003 2.188-0.132 3.766-0.836 4.688-2.094 0.019-0.025 0.033-0.053 0.051-0.079 2.042 3.741 2.067 7.634 2.067 7.634s1.04-5.384-1.08-9.349C26.693 32.402 27.505 31.517 27.773 30.186zM25.967 29.823c-0.163 0.81-0.685 1.305-1.188 1.608-3.442-3.904-10.732-6.644-10.732-6.644s5.429 3.227 9.129 7.471c0.175 0.2 0.334 0.407 0.492 0.614-0.209 0.855-0.997 1.971-3.677 2.131C4.301 33.605 1.842 14.359 1.842 14.359s1.174 1.891 4.121 2.723c2.949 0.83 9.113 0.264 14.635 3.1C26.117 23.019 26.307 28.122 25.967 29.823z" fill="#ffffff" data-fill-palette-color="accent"></path></svg></g></svg></g></svg></g></svg><rect width="395.52" height="115.80675294690761" fill="none" stroke="none" visibility="hidden"></rect></g></svg></g></svg>